<svg xmlns="http://www.w3.org/2000/svg" xmlns:xlink="http://www.w3.org/1999/xlink" width="143.269" height="33.119" viewBox="0 0 143.269 33.119">
  <defs>
    <clipPath id="clip-path">
      <rect id="Rectangle_338" data-name="Rectangle 338" width="143.269" height="33.119" fill="none"/>
    </clipPath>
  </defs>
  <g id="Group_205" data-name="Group 205" opacity="0.305">
    <path id="Path_689" data-name="Path 689" d="M194.075,5.035l4.441,11.584h-8.841ZM192.415,0,182.35,26.125h3.739l2.371-6.254h11.318l2.405,6.254h3.854L195.893,0Z" transform="translate(-156.225)"/>
    <g id="Group_206" data-name="Group 206">
      <g id="Group_205-2" data-name="Group 205" clip-path="url(#clip-path)">
        <path id="Path_690" data-name="Path 690" d="M361.35,0h3.52V26.125h-3.483V23.639a6.8,6.8,0,0,1-5.957,2.85c-4.811,0-8.14-3.7-8.14-9.99,0-6.365,3.582-9.917,8.14-9.917a7.166,7.166,0,0,1,5.923,2.553Zm.109,16.5c0-4.331-2.109-6.877-5.363-6.877-3.334,0-5.327,2.7-5.327,6.957,0,4.33,2,6.877,5.291,6.877,3.37,0,5.4-2.589,5.4-6.957Z" transform="translate(-297.535)"/>
        <path id="Path_691" data-name="Path 691" d="M502.962,0h3.514V26.125H503V23.639a6.8,6.8,0,0,1-5.958,2.85c-4.81,0-8.141-3.7-8.141-9.99,0-6.36,3.6-9.908,8.141-9.908a7.162,7.162,0,0,1,5.923,2.553Zm.109,16.5c0-4.331-2.11-6.877-5.363-6.877-3.332,0-5.327,2.7-5.327,6.957,0,4.33,2,6.877,5.291,6.877,3.37,0,5.405-2.589,5.405-6.957Z" transform="translate(-418.856)"/>
        <path id="Path_692" data-name="Path 692" d="M637.21,0h3.663V3.921H637.21Zm.073,26.128V6.957H640.8V26.125Z" transform="translate(-545.918)"/>
        <path id="Path_693" data-name="Path 693" d="M703.887,55.351V65.523h-3.519v-10.1c0-3.073-.037-6.291-3.775-6.291-3.033,0-4.958,2.436-4.958,6.032V65.529H688.12V46.367h3.516v2.181A7.308,7.308,0,0,1,697.415,46c6.471,0,6.471,5.731,6.471,9.351" transform="translate(-589.535 -39.41)"/>
        <path id="Path_694" data-name="Path 694" d="M830.7,46.35h3.516V62.668c0,3.885-.7,9.844-8.363,9.844-5,0-7.585-2.332-8.512-6.365l3.256-.666c.739,2.516,2.292,4.069,5.218,4.069,4.4,0,4.958-3.334,4.958-6.03V62.3a6.648,6.648,0,0,1-5.7,2.554c-4.774,0-8.327-3.59-8.327-9.51,0-5.327,3.036-9.361,8.291-9.361a7.122,7.122,0,0,1,5.661,2.436Zm.113,9.067c0-4-2.149-6.4-5.444-6.4-3.256,0-5.181,2.516-5.181,6.325,0,4.109,1.924,6.477,5.444,6.477,3.405,0,5.182-2.292,5.182-6.4Z" transform="translate(-699.736 -39.393)"/>
        <path id="Path_695" data-name="Path 695" d="M14.449,8.5V0H11.672V11.673H0V14.45H8.566A5.959,5.959,0,0,0,14.449,8.5"/>
        <path id="Path_696" data-name="Path 696" d="M87.374,81.48A5.842,5.842,0,0,0,81.49,87.3v8.636h2.777V84.257H95.94V81.48Z" transform="translate(-69.815 -69.807)"/>
        <path id="Path_697" data-name="Path 697" d="M960.487,50.045a2.831,2.831,0,1,1,2.835,2.827h0a2.771,2.771,0,0,1-2.834-2.706c0-.04,0-.08,0-.12m5.014,0a2.122,2.122,0,0,0-2.094-2.15h-.087a2.123,2.123,0,0,0-2.188,2.149,2.188,2.188,0,1,0,4.374.112q0-.056,0-.112Zm-3.613.017a1.41,1.41,0,0,1,1.386-1.433h.061a1.343,1.343,0,0,1,1.362.928l-.643.159a.717.717,0,0,0-.716-.468.774.774,0,0,0-.773.774c0,.015,0,.031,0,.046a.789.789,0,0,0,.75.827h.037a.716.716,0,0,0,.716-.468l.643.168a1.332,1.332,0,0,1-1.345.92,1.416,1.416,0,0,1-1.475-1.354c0-.031,0-.062,0-.093Z" transform="translate(-822.879 -40.446)"/>
      </g>
    </g>
  </g>
</svg>
