<svg xmlns="http://www.w3.org/2000/svg" xmlns:xlink="http://www.w3.org/1999/xlink" width="131.275" height="33.118" viewBox="0 0 131.275 33.118">
  <defs>
    <clipPath id="clip-path">
      <rect id="Rectangle_339" data-name="Rectangle 339" width="131.275" height="33.119" fill="none"/>
    </clipPath>
  </defs>
  <g id="Group_208" data-name="Group 208" opacity="0.3">
    <g id="Group_207" data-name="Group 207" clip-path="url(#clip-path)">
      <path id="Path_698" data-name="Path 698" d="M25,34.708l-9.433,9.433L0,28.525,15.688,12.791c.095.09.259.238.416.395q6.638,6.636,13.268,13.279a1.378,1.378,0,0,0,1.09.463c1.787-.026,3.576-.011,5.363-.011h.641v6.158c-.231.016-.468.047-.705.047-2.758,0-5.516-.008-8.273.011a1.462,1.462,0,0,1-1.151-.467q-5.088-5.119-10.207-10.208c-.159-.159-.325-.31-.444-.424l-6.53,6.53,6.522,6.574,4.835-4.912L25,34.708" transform="translate(0 -11.331)"/>
      <path id="Path_699" data-name="Path 699" d="M349.525,26.58c.53.133.88.2,1.215.308a4.329,4.329,0,0,1,2.918,4.267c.125,3.211-1.559,5.26-4.811,5.79a17.665,17.665,0,0,1-2.607.221c-2.339.03-4.678.01-7.018.01h-.644V17.393a4.29,4.29,0,0,1,.485-.053c2.472,0,4.945-.016,7.417.027a8.362,8.362,0,0,1,2.128.325c2.48.709,3.343,2.743,3.181,5.312a4,4,0,0,1-2.265,3.575m-5.862,2.315c0,1.458-.007,2.782.014,4.105a.436.436,0,0,0,.315.289,20.568,20.568,0,0,0,3.043-.274,1.776,1.776,0,0,0,1.486-2,1.857,1.857,0,0,0-1.689-1.909c-1.006-.145-2.033-.144-3.169-.214m.038-7.768v4.088a18.991,18.991,0,0,0,2.178-.258,1.628,1.628,0,0,0,1.247-1.75,1.583,1.583,0,0,0-1.2-1.771,19.561,19.561,0,0,0-2.223-.31" transform="translate(-299.928 -15.359)"/>
      <path id="Path_700" data-name="Path 700" d="M497.927,83.178h-4.643l-.086-1.529a4.457,4.457,0,0,1-3.181,1.9,6.591,6.591,0,0,1-7.155-4.162,7.491,7.491,0,0,1,2.766-9.188c2.117-1.3,5.466-1.265,7.32.571a2.759,2.759,0,0,0,.228.175,3.174,3.174,0,0,0,.061-.416c0-.895-.08-.83.83-.831h3.859Zm-7.654-3.663a2.928,2.928,0,0,0,3.162-3,3.142,3.142,0,0,0-6.283-.047,2.935,2.935,0,0,0,3.121,3.044" transform="translate(-427.22 -61.386)"/>
      <path id="Path_701" data-name="Path 701" d="M705.29,69.329a8.425,8.425,0,0,1,5.969,2.136,6.88,6.88,0,0,1-1.382,11.026,9.241,9.241,0,0,1-9.612-.232,6.375,6.375,0,0,1-3.092-6.367,6.614,6.614,0,0,1,4.281-5.836,9.033,9.033,0,0,1,3.836-.727m-.036,10.213a2.915,2.915,0,0,0,3.129-3.026,3.124,3.124,0,0,0-6.247-.018,2.929,2.929,0,0,0,3.118,3.044" transform="translate(-617.562 -61.413)"/>
      <path id="Path_702" data-name="Path 702" d="M1034.349,77.038h-.765q-4.366,0-8.732,0c-.722,0-.724.022-.614.753a2.415,2.415,0,0,0,1.864,2.2,2.9,2.9,0,0,0,3.272-.826.647.647,0,0,1,.394-.264c1.422-.019,2.844-.012,4.326-.012a5.388,5.388,0,0,1-2.226,3.259,9.046,9.046,0,0,1-10.069-.408,6.626,6.626,0,0,1-2.35-5.352,6.756,6.756,0,0,1,2.714-5.865,8.8,8.8,0,0,1,9.236-.184,6.562,6.562,0,0,1,2.8,4.825c.079.581.1,1.171.15,1.875m-4.5-2.717c-.207-1.42-1.479-2.252-3.162-2.114a2.408,2.408,0,0,0-2.328,2.114Z" transform="translate(-903.075 -61.229)"/>
      <path id="Path_703" data-name="Path 703" d="M908.541,82.019l1.621-3.122c1.123.4,2.174.831,3.263,1.12a2.624,2.624,0,0,0,1.488-.147,1.131,1.131,0,0,0,.622-.818,1.161,1.161,0,0,0-.554-.868,8.253,8.253,0,0,0-1.62-.509c-.219-.062-.447-.089-.668-.145-1.452-.363-2.737-.965-3.039-2.618a4.266,4.266,0,0,1,1.709-4.528,6.025,6.025,0,0,1,2.96-1.1,10.987,10.987,0,0,1,5.163.586c.121.046.235.109.425.2l-1.483,2.819c-.955-.172-1.82-.367-2.694-.465a2.024,2.024,0,0,0-1.035.241.744.744,0,0,0-.049,1.39,5.649,5.649,0,0,0,1.283.437c.53.145,1.083.214,1.6.387a4.034,4.034,0,0,1,1.861,6.509,5.92,5.92,0,0,1-3.84,2.03,10.231,10.231,0,0,1-7.018-1.4" transform="translate(-804.827 -61.305)"/>
      <path id="Path_704" data-name="Path 704" d="M642.268,21.818V0h4.639c.014.236.039.457.039.679,0,6.81,0,13.619.014,20.429,0,.574-.148.747-.734.726-1.306-.048-2.614-.015-3.958-.015" transform="translate(-568.95)"/>
      <path id="Path_705" data-name="Path 705" d="M857.95,86.213h-4.666c-.014-.185-.041-.367-.041-.548,0-4.108,0-8.216-.011-12.324,0-.464.117-.632.6-.618,1.178.032,2.358.009,3.537.012.185,0,.37.02.578.031Z" transform="translate(-755.832 -64.419)"/>
      <path id="Path_706" data-name="Path 706" d="M516.489,5.041l-1.97,2.152c-1.107-.848-2.207-1.658-3.265-2.52a.7.7,0,0,0-1.063-.009c-1.057.863-2.157,1.673-3.272,2.528l-1.9-2.153,4.053-3.05a12.872,12.872,0,0,0,1.09-.827.714.714,0,0,1,1.109-.026c1.531,1.19,3.106,2.323,4.664,3.478.166.123.328.251.558.426" transform="translate(-447.365 -0.784)"/>
      <path id="Path_707" data-name="Path 707" d="M344.607,236.9a9.394,9.394,0,0,1-1.464-.024.811.811,0,0,1-.474-.5c-.158-.482-.389-.744-.937-.652a2.8,2.8,0,0,1-.854,0c-.683-.1-1.123.1-1.278.83-.031.145-.307.315-.486.335a12.984,12.984,0,0,1-1.4.016c.084-.251.136-.424.2-.592.709-1.843,1.431-3.681,2.12-5.531a.7.7,0,0,1,.788-.535c1.308.019,1.308,0,1.771,1.229q.9,2.4,1.806,4.8c.065.174.115.353.2.629m-3.344-4.512-.156-.012-.678,2.054h1.509l-.675-2.042" transform="translate(-299.165 -203.957)"/>
      <path id="Path_708" data-name="Path 708" d="M853.659,9.075A2.624,2.624,0,0,1,851,6.456a2.654,2.654,0,0,1,2.66-2.689,2.711,2.711,0,0,1,2.651,2.665,2.676,2.676,0,0,1-2.656,2.644" transform="translate(-753.858 -3.336)"/>
      <path id="Path_709" data-name="Path 709" d="M584.091,248.407c.494-.6,1.084-.215,1.648-.312v4.38c-.792.26-1.417.158-1.61-.258a2.136,2.136,0,0,1-3.009-.2,2.579,2.579,0,0,1-.059-3.3,2.2,2.2,0,0,1,3.029-.309m-1.978,1.926a1.024,1.024,0,0,0,1.062,1.079,1.045,1.045,0,0,0,1.1-1.055,1.072,1.072,0,0,0-1.076-1.089,1.046,1.046,0,0,0-1.085,1.065" transform="translate(-514.227 -219.645)"/>
      <path id="Path_710" data-name="Path 710" d="M735.835,250.379H732.3c.235.391.335.782.566.889a1.253,1.253,0,0,0,1.055.047c.581-.467,1.185-.231,1.789-.3a2.2,2.2,0,0,1-2.6,1.5,2.316,2.316,0,0,1-2.214-2.8,2.357,2.357,0,0,1,2.666-2.008,2.311,2.311,0,0,1,2.268,2.666m-3.336-.926h1.9a.945.945,0,0,0-1.01-.744.851.851,0,0,0-.892.744" transform="translate(-647.447 -219.428)"/>
      <path id="Path_711" data-name="Path 711" d="M640.422,248.4a1.869,1.869,0,0,1,1.826-.6,1.416,1.416,0,0,1,1.27,1.462c.067,1.018.016,2.044.016,3.11h-1.54c0-.852.018-1.665-.005-2.477-.022-.751-.6-1.16-1.165-.8a1.245,1.245,0,0,0-.46.833,14.748,14.748,0,0,0-.025,1.995c.011.37-.118.5-.492.5-1.3-.024-1.052.1-1.069-1.052-.014-.989.01-1.978-.008-2.967-.007-.376.139-.543.5-.483.41.068.983-.278,1.154.479" transform="translate(-565.85 -219.471)"/>
      <path id="Path_712" data-name="Path 712" d="M492.529,249.043c0,.9-.006,1.675,0,2.453.007.651.251.954.776.99.555.039.874-.253.911-.916s.034-1.33.018-1.995c-.009-.384.111-.577.518-.536a2.047,2.047,0,0,0,.456,0c.459-.057.6.154.581.591-.031.8-.007,1.6-.035,2.394a1.526,1.526,0,0,1-1.17,1.506,3.96,3.96,0,0,1-2.464-.015,1.541,1.541,0,0,1-1.142-1.531c-.022-.836,0-1.673-.015-2.509-.007-.322.114-.447.43-.435.356.014.712,0,1.135,0" transform="translate(-434.918 -220.602)"/>
      <path id="Path_713" data-name="Path 713" d="M404.032,252.086l.52-1a5.614,5.614,0,0,0,1.149.342c.222.019.464-.2.7-.313a3.788,3.788,0,0,0-.509-.439,1.9,1.9,0,0,0-.492-.131c-.5-.135-.923-.362-1.01-.944a1.389,1.389,0,0,1,.7-1.5,3.172,3.172,0,0,1,2.714-.063l-.455.912a3.377,3.377,0,0,0-.817-.11,1.979,1.979,0,0,0-.6.29,4.67,4.67,0,0,0,.53.418,1.989,1.989,0,0,0,.438.11c.7.21,1.041.559,1.072,1.165a1.431,1.431,0,0,1-.819,1.447,3.242,3.242,0,0,1-3.121-.188" transform="translate(-357.91 -219.484)"/>
      <path id="Path_714" data-name="Path 714" d="M780.977,252.054l.514-.989a5.6,5.6,0,0,0,1.144.341c.222.019.464-.2.7-.31a3.683,3.683,0,0,0-.5-.441,1.93,1.93,0,0,0-.492-.131c-.5-.138-.931-.353-1-.945a1.377,1.377,0,0,1,.7-1.5,3.116,3.116,0,0,1,2.64-.088c-.168.81-.283.9-1.028.827a1.081,1.081,0,0,0-.451.014c-.123.045-.287.17-.3.275a.436.436,0,0,0,.235.326,5.4,5.4,0,0,0,.707.2c.708.21,1.041.547,1.075,1.161a1.422,1.422,0,0,1-.812,1.451,3.175,3.175,0,0,1-3.12-.194" transform="translate(-691.825 -219.462)"/>
      <path id="Path_715" data-name="Path 715" d="M449.966,248.043a2.828,2.828,0,0,1-.333.63.815.815,0,0,1-.476.205c-.2.022-.42-.075-.617-.041a1.476,1.476,0,0,0-.449.265,1.871,1.871,0,0,0,.392.4,2.615,2.615,0,0,0,.6.159,1.227,1.227,0,0,1,1.041,1.127,1.41,1.41,0,0,1-.786,1.463,3.178,3.178,0,0,1-3.142-.178l.515-.994a6.363,6.363,0,0,0,1.183.351c.206.021.437-.192.656-.3a3.408,3.408,0,0,0-.483-.455,1.653,1.653,0,0,0-.491-.132c-.531-.132-.956-.377-1.042-.981a1.4,1.4,0,0,1,.737-1.481,3.158,3.158,0,0,1,2.694-.041" transform="translate(-395.262 -219.479)"/>
      <path id="Path_716" data-name="Path 716" d="M693.93,249.243c-.677-.266-1.314-.37-1.767.291a1.107,1.107,0,0,0,.032,1.334c.33.467.828.545,1.735.266a4.924,4.924,0,0,1-.015.892.645.645,0,0,1-.329.427,2.491,2.491,0,0,1-2.794-.873,2.441,2.441,0,0,1,.024-2.825,2.523,2.523,0,0,1,2.749-.871.718.718,0,0,1,.35.472,4.394,4.394,0,0,1,.015.887" transform="translate(-611.547 -219.477)"/>
      <path id="Path_717" data-name="Path 717" d="M546.311,247.319l.072.505,1.747-.739v1.562c-.192-.019-.375-.048-.557-.052a1.045,1.045,0,0,0-1.189,1.087c-.032.55-.037,1.1-.015,1.653.015.38-.131.5-.5.49-1.3-.023-1.048.1-1.066-1.051-.015-.97.015-1.94-.011-2.909-.012-.428.133-.588.556-.552.3.026.6.005.959.005" transform="translate(-482.604 -218.879)"/>
    </g>
  </g>
</svg>
