<svg id="Group_177" data-name="Group 177" xmlns="http://www.w3.org/2000/svg" width="39.856" height="39.856" viewBox="0 0 39.856 39.856">
  <path id="Path_639" data-name="Path 639" d="M458.088,391.3a19.928,19.928,0,1,0,19.928,19.928A19.928,19.928,0,0,0,458.088,391.3m0,37.729a17.8,17.8,0,1,1,17.8-17.8,17.823,17.823,0,0,1-17.8,17.8" transform="translate(-438.16 -391.3)"/>
  <path id="Path_640" data-name="Path 640" d="M479.647,425.29H475.6a3.448,3.448,0,0,0-3.449,3.449v4.049a3.448,3.448,0,0,0,3.449,3.449h4.049a3.448,3.448,0,0,0,3.449-3.449v-4.049a3.448,3.448,0,0,0-3.449-3.449m1.323,7.5a1.321,1.321,0,0,1-1.323,1.323H475.6a1.321,1.321,0,0,1-1.323-1.323v-4.049a1.321,1.321,0,0,1,1.323-1.323h4.049a1.321,1.321,0,0,1,1.323,1.323Z" transform="translate(-457.695 -410.835)"/>
</svg>
