<svg xmlns="http://www.w3.org/2000/svg" width="29.581" height="45.276" viewBox="0 0 29.581 45.276">
  <g id="Group_175" data-name="Group 175" transform="translate(0 0)">
    <path id="Path_641" data-name="Path 641" d="M613.6,406.32a3.628,3.628,0,1,0,3.629,3.629,3.628,3.628,0,0,0-3.629-3.629" transform="translate(-598.857 -373.843)"/>
    <path id="Path_642" data-name="Path 642" d="M596.879,297.386l-1.948-.354a12.368,12.368,0,0,0-11.236-11.247l-.351-1.935a.695.695,0,0,0-1.367,0l-.348,1.924a12.369,12.369,0,0,0-11.342,11.273l-1.845.335a.7.7,0,0,0,0,1.37l1.8.327v17.1a12.369,12.369,0,1,0,24.738,0V299.1l1.9-.346a.7.7,0,0,0,0-1.37m-8.378,1.549a6.207,6.207,0,0,0-4.978,4.976l-.343,1.893-.243,1.338-.277,1.528-.277-1.526-.24-1.333-.346-1.9a6.208,6.208,0,0,0-4.976-4.976l-1.848-.335-1.33-.24-1.581-.288,1.586-.288,1.341-.243,1.832-.333a6.211,6.211,0,0,0,4.976-4.978l.306-1.687.243-1.336.314-1.737.317,1.742.243,1.338.3,1.679a6.211,6.211,0,0,0,4.978,4.978l1.732.314,1.341.243,1.687.306-1.681.306-1.33.24Zm.235-3.025A4.88,4.88,0,0,1,584.821,292l-.219-1.206a7.671,7.671,0,0,1,5.382,5.348ZM580.5,292a4.88,4.88,0,0,1-3.912,3.914l-1.354.245a7.681,7.681,0,0,1,5.49-5.4Zm-3.912,8.238a4.881,4.881,0,0,1,3.912,3.912l.264,1.454a7.664,7.664,0,0,1-5.585-5.622Zm8.235,3.912a4.88,4.88,0,0,1,3.914-3.912l1.307-.238a7.671,7.671,0,0,1-5.48,5.577Zm8.758-7.359-2.175-.393a8.983,8.983,0,0,0-7.058-7.019l-.406-2.236a11.067,11.067,0,0,1,9.64,9.648m-12.2-9.661-.4,2.228a8.983,8.983,0,0,0-7.164,7.058l-2.178.4a11.069,11.069,0,0,1,9.745-9.682m12.277,29.061a11.049,11.049,0,0,1-22.1,0V299.32l2.212.4a8.983,8.983,0,0,0,7.245,7.283l.958,5.284a.7.7,0,0,0,1.37,0l.961-5.305a8.981,8.981,0,0,0,7.14-7.243l2.212-.4Z" transform="translate(-567.87 -283.28)"/>
  </g>
</svg>
