<svg xmlns="http://www.w3.org/2000/svg" width="60.685" height="15.063" viewBox="0 0 60.685 15.063">
  <g id="Group_187" data-name="Group 187" transform="translate(0)">
    <path id="Path_643" data-name="Path 643" d="M814.349,336.23H776.977a11.669,11.669,0,0,0-11.656,11.656v3.406h2.126v-3.406a9.542,9.542,0,0,1,9.53-9.53h4.206v2.807a2.207,2.207,0,0,0,2.207,2.2h24.546a2.207,2.207,0,0,0,2.207-2.2v-2.807h4.206a9.542,9.542,0,0,1,9.53,9.53v3.406h2.126v-3.406a11.669,11.669,0,0,0-11.656-11.656m-15.229,4.737H792.2a.425.425,0,0,1,0-.851h6.919a.425.425,0,1,1,0,.851m4.308,1.05a1.478,1.478,0,1,1,1.48-1.476,1.474,1.474,0,0,1-1.48,1.476" transform="translate(-765.32 -336.23)"/>
  </g>
</svg>
