<svg id="Group_13" data-name="Group 13" xmlns="http://www.w3.org/2000/svg" xmlns:xlink="http://www.w3.org/1999/xlink" width="29.264" height="33.735" viewBox="0 0 29.264 33.735">
  <defs>
    <clipPath id="clip-path">
      <rect id="Rectangle_13" data-name="Rectangle 13" width="29.264" height="33.735" fill="#fff"/>
    </clipPath>
  </defs>
  <g id="Group_12" data-name="Group 12" clip-path="url(#clip-path)">
    <path id="Path_28" data-name="Path 28" d="M8.47,8.1c0-.653,0-1.27,0-1.888A6.164,6.164,0,1,1,20.8,6.224c0,.611,0,1.223,0,1.859.089,0,.17.011.25.011,1.019.005,2.04-.032,3.057.024a3.717,3.717,0,0,1,3.4,3.324c.2,2.012.441,4.021.663,6.031q.3,2.745.6,5.491c.16,1.455.356,2.908.472,4.366a5.973,5.973,0,0,1-1.914,5.153,4.749,4.749,0,0,1-3.314,1.238q-4.337-.007-8.674-.006c-3.292,0-6.584-.038-9.875.017A5.251,5.251,0,0,1,.278,29.84a7.133,7.133,0,0,1-.222-2.89c.182-1.582.353-3.165.529-4.747q.429-3.87.858-7.74c.112-1.012.226-2.025.33-3.038A3.728,3.728,0,0,1,5.429,8.1c.919-.005,1.838,0,2.756,0H8.47m2.985,3c0,.7.006,1.367,0,2.038a1.492,1.492,0,0,1-2.983,0c0-.257,0-.513,0-.77,0-.419,0-.839,0-1.276H5.564a.75.75,0,0,0-.828.739q-.307,2.745-.607,5.49-.26,2.363-.517,4.726c-.2,1.815-.406,3.63-.6,5.445A3.48,3.48,0,0,0,3.256,29.3a2.161,2.161,0,0,0,2.16,1.439c2.1-.027,4.2-.008,6.3-.008q6.138,0,12.276,0a1.989,1.989,0,0,0,1.648-.793,3.018,3.018,0,0,0,.553-1.179,5.982,5.982,0,0,0-.019-2.116q-.463-4.174-.926-8.348-.358-3.24-.714-6.481a.743.743,0,0,0-.827-.737q-1.348,0-2.7,0c-.066,0-.131.009-.21.015,0,.674,0,1.33,0,1.986a1.494,1.494,0,1,1-2.986,0c0-.581,0-1.163,0-1.744,0-.08-.007-.159-.011-.248Zm6.354-3c0-.654,0-1.279,0-1.9a3.176,3.176,0,1,0-6.353,0c0,.551,0,1.1,0,1.652,0,.08,0,.159,0,.251Z" transform="translate(0 0)" fill="#fff"/>
  </g>
</svg>
