<svg id="Group_188" data-name="Group 188" xmlns="http://www.w3.org/2000/svg" width="41.928" height="52.92" viewBox="0 0 41.928 52.92">
  <path id="Path_644" data-name="Path 644" d="M1052.565,380.673a1.063,1.063,0,0,0-1.063,1.063V415.78a6.671,6.671,0,0,1-6.663,6.663h-17.617a6.671,6.671,0,0,1-6.663-6.663v-8.008h2.1v8.109a4.315,4.315,0,0,0,4.487,4.109H1044.9a4.315,4.315,0,0,0,4.487-4.109V381.736a1.063,1.063,0,1,0-2.126,0v34.145a2.2,2.2,0,0,1-2.36,1.983H1027.14a2.2,2.2,0,0,1-2.36-1.983v-8.109h2.557a4.076,4.076,0,0,0,4.078-4.078v-19.6a4.081,4.081,0,0,0-3.717-4.066,2.093,2.093,0,0,0,.03-.37v-5.5a2.5,2.5,0,0,0-2.5-2.5h-7.332a2.5,2.5,0,0,0-2.5,2.5v5.5a2.105,2.105,0,0,0,.03.37,4.075,4.075,0,0,0-3.721,4.066v19.6a4.076,4.076,0,0,0,4.078,4.078h2.654v8.008a8.8,8.8,0,0,0,8.79,8.79h17.617a8.8,8.8,0,0,0,8.79-8.79V381.736a1.063,1.063,0,0,0-1.063-1.063m-35.048-6.522a.375.375,0,0,1,.374-.374h7.332a.378.378,0,0,1,.378.374v5.5a.371.371,0,0,1-.259.353h-7.57a.368.368,0,0,1-.255-.353Zm-3.691,29.543v-19.6a1.956,1.956,0,0,1,1.952-1.956h1.8a2.481,2.481,0,0,0,.31.021h7.332a2.481,2.481,0,0,0,.31-.021h1.8a1.956,1.956,0,0,1,1.952,1.956v19.6a1.955,1.955,0,0,1-1.952,1.952h-11.559a1.955,1.955,0,0,1-1.952-1.952" transform="translate(-1011.7 -371.65)"/>
</svg>
