<svg id="Group_196" data-name="Group 196" xmlns="http://www.w3.org/2000/svg" width="52.555" height="13.406" viewBox="0 0 52.555 13.406">
  <path id="Path_645" data-name="Path 645" d="M705.058,507.965h0m-.006,0h0m-.006,0h0m0,0h0m-.005,0h0m0,0h0m0,0h0m0,0h0m0,0h0m0,0h0m0,0h0m0,0h0m0,0h0m0,0h0m0,0h0m0,0h0m0,0h0m-.005,0a5.927,5.927,0,0,1-1.476-.206,5.934,5.934,0,0,0,1.476.206m-5.857-5.843h0m0,0h0m0,0h0m0,0h0m0,0h0m0,0h0m0,0h0m0,0h0m0,0h0m0,0h0m0,0h0m0,0h0m0,0h0m0,0h0m0,0h0m0,0h0m0,0h0m0,0h0m0,0h0m0,0h0m51.025,0h0m-51.025,0a5.946,5.946,0,0,1,5.939-5.939h0a5.946,5.946,0,0,0-5.939,5.939m51.025-.006h0m0-.005h0m0,0h0m0,0h0m0,0h0m0,0h0m0,0h0m0,0h0m0,0h0m0,0h0m0,0h0m0,0h0m0,0h0m0,0a5.94,5.94,0,0,0-.171-1.353,5.9,5.9,0,0,1,.171,1.353m-.171-1.353h0m-3.666-4.135a5.915,5.915,0,0,0-2.068-.384,5.9,5.9,0,0,1,2.068.384m-2.068-.384h0m0,0h0m0,0h0m-.005,0h0m0,0h0m-.005,0h0" transform="translate(-698.354 -495.325)"/>
  <path id="Path_646" data-name="Path 646" d="M742.471,493.59H703.324a6.7,6.7,0,0,0,0,13.406h39.146a6.7,6.7,0,0,0,0-13.406m-39.146,11.875a5.172,5.172,0,1,1,0-10.345h39.146a5.172,5.172,0,1,1,0,10.345Z" transform="translate(-696.62 -493.59)"/>
  <path id="Path_647" data-name="Path 647" d="M723.176,513.2a1.806,1.806,0,1,1,1.806-1.806,1.808,1.808,0,0,1-1.806,1.806" transform="translate(-713.793 -504.692)"/>
  <path id="Path_648" data-name="Path 648" d="M721.442,508.621a1.041,1.041,0,1,1-1.041,1.041,1.042,1.042,0,0,1,1.041-1.041m0-1.531a2.572,2.572,0,1,0,2.571,2.572,2.571,2.571,0,0,0-2.571-2.572" transform="translate(-712.058 -502.957)"/>
  <path id="Path_649" data-name="Path 649" d="M750.767,513.2a1.806,1.806,0,1,1,1.806-1.806,1.808,1.808,0,0,1-1.806,1.806" transform="translate(-732.937 -504.692)"/>
  <path id="Path_650" data-name="Path 650" d="M749.032,508.621a1.041,1.041,0,1,1-1.041,1.041,1.042,1.042,0,0,1,1.041-1.041m0-1.531a2.572,2.572,0,1,0,2.572,2.572,2.571,2.571,0,0,0-2.572-2.572" transform="translate(-731.202 -502.957)"/>
  <path id="Path_651" data-name="Path 651" d="M778.356,513.2a1.806,1.806,0,1,1,1.806-1.806,1.808,1.808,0,0,1-1.806,1.806" transform="translate(-752.08 -504.692)"/>
  <path id="Path_652" data-name="Path 652" d="M776.622,508.621a1.041,1.041,0,1,1-1.041,1.041,1.042,1.042,0,0,1,1.041-1.041m0-1.531a2.572,2.572,0,1,0,2.572,2.572,2.571,2.571,0,0,0-2.572-2.572" transform="translate(-750.346 -502.957)"/>
  <path id="Path_653" data-name="Path 653" d="M805.946,513.2a1.806,1.806,0,1,1,1.806-1.806,1.808,1.808,0,0,1-1.806,1.806" transform="translate(-771.224 -504.692)"/>
  <path id="Path_654" data-name="Path 654" d="M804.212,508.621a1.041,1.041,0,1,1-1.041,1.041,1.042,1.042,0,0,1,1.041-1.041m0-1.531a2.572,2.572,0,1,0,2.571,2.572,2.571,2.571,0,0,0-2.571-2.572" transform="translate(-769.489 -502.957)"/>
  <path id="Path_655" data-name="Path 655" d="M833.536,513.2a1.806,1.806,0,1,1,1.806-1.806,1.808,1.808,0,0,1-1.806,1.806" transform="translate(-790.367 -504.692)"/>
  <path id="Path_656" data-name="Path 656" d="M831.8,508.621a1.041,1.041,0,1,1-1.041,1.041,1.042,1.042,0,0,1,1.041-1.041m0-1.531a2.572,2.572,0,1,0,2.571,2.572,2.571,2.571,0,0,0-2.571-2.572" transform="translate(-788.633 -502.957)"/>
</svg>
