<svg xmlns="http://www.w3.org/2000/svg" width="32.888" height="61.287" viewBox="0 0 32.888 61.287">
  <g id="Group_174" data-name="Group 174" transform="translate(0)">
    <path id="Path_633" data-name="Path 633" d="M495,0H474.01a5.949,5.949,0,0,0-5.95,5.95V55.337a5.949,5.949,0,0,0,5.95,5.95H495a5.949,5.949,0,0,0,5.95-5.95V5.95A5.949,5.949,0,0,0,495,0m4.755,55.337A4.76,4.76,0,0,1,495,60.093H474.01a4.76,4.76,0,0,1-4.755-4.755V5.95a4.76,4.76,0,0,1,4.755-4.755H495a4.76,4.76,0,0,1,4.755,4.755Z" transform="translate(-468.06 0)"/>
    <path id="Path_634" data-name="Path 634" d="M489.379,12.34h-6.972a3.047,3.047,0,0,0-3.048,3.048v6.972a3.047,3.047,0,0,0,3.048,3.048h6.972a3.047,3.047,0,0,0,3.048-3.048V15.388a3.047,3.047,0,0,0-3.048-3.048m1.853,10.019a1.855,1.855,0,0,1-1.853,1.853h-6.972a1.855,1.855,0,0,1-1.853-1.853V15.388a1.855,1.855,0,0,1,1.853-1.853h6.972a1.855,1.855,0,0,1,1.853,1.853Z" transform="translate(-476.661 -9.393)"/>
    <path id="Path_635" data-name="Path 635" d="M490,21.16a2.024,2.024,0,1,0,2.023,2.023A2.022,2.022,0,0,0,490,21.16m0,2.854a.83.83,0,1,1,.829-.831.83.83,0,0,1-.829.831" transform="translate(-483.222 -16.106)"/>
    <path id="Path_636" data-name="Path 636" d="M490,41.45a2.024,2.024,0,1,0,2.023,2.025A2.024,2.024,0,0,0,490,41.45m0,2.854a.83.83,0,1,1,.829-.829A.829.829,0,0,1,490,44.3" transform="translate(-483.222 -31.55)"/>
    <path id="Path_637" data-name="Path 637" d="M510.3,35.7a.818.818,0,1,0,.819.819.819.819,0,0,0-.819-.819" transform="translate(-499.587 -27.173)"/>
    <path id="Path_638" data-name="Path 638" d="M511.723,27.958a.374.374,0,1,0-.373-.373.373.373,0,0,0,.373.373" transform="translate(-501.01 -20.711)"/>
  </g>
</svg>
