<svg xmlns="http://www.w3.org/2000/svg" width="10.945" height="23.406" viewBox="0 0 10.945 23.406">
  <path id="Path_27" data-name="Path 27" d="M1104.223,23.406a.7.7,0,0,1-.025-.132q0-5.675,0-11.351c0-.2,0-.2-.2-.2h-2.04c-.161,0-.179-.018-.179-.172q0-1.849,0-3.7c0-.163.015-.18.182-.179q1.073,0,2.146.007c.077,0,.1-.026.1-.106,0-.951-.006-1.9.013-2.853a8.861,8.861,0,0,1,.122-1.023,4.53,4.53,0,0,1,.38-1.281,3.537,3.537,0,0,1,1.214-1.491,5.234,5.234,0,0,1,.751-.434,4.078,4.078,0,0,1,.735-.237c.326-.079.657-.14.989-.2a3.2,3.2,0,0,1,.484-.032Q1110,.009,1111.109,0c.476,0,.951,0,1.427,0,.146,0,.173.027.173.173q0,1.844,0,3.688c0,.189-.016.2-.2.2-.659,0-1.318-.007-1.976,0a4.08,4.08,0,0,0-.741.087.88.88,0,0,0-.677.813c-.081.809-.029,1.619-.048,2.428,0,.049,0,.1-.006.148-.013.12,0,.13.122.13l3.382-.006c.157,0,.172.02.151.185-.043.342-.092.682-.129,1.025-.038.36-.06.721-.1,1.081-.057.541-.125,1.082-.184,1.623-.011.1-.046.14-.152.139-1,0-2,0-3-.007-.086,0-.1.037-.1.109s.011.133.011.2q0,5.58,0,11.16c0,.073-.012.147-.018.22Z" transform="translate(-1101.774)"/>
</svg>
