<svg id="Group_57" data-name="Group 57" xmlns="http://www.w3.org/2000/svg" width="29.684" height="29.698" viewBox="0 0 29.684 29.698">
  <path id="Path_24" data-name="Path 24" d="M7.6,0H22.09c.3.048.61.08.909.147a8.089,8.089,0,0,1,6.442,6.115c.12.433.164.887.243,1.331V22.085c-.018.1-.03.209-.056.31A13.665,13.665,0,0,1,29,24.7a7.937,7.937,0,0,1-7.549,4.962c-4.4.062-8.811.018-13.216.013a7.9,7.9,0,0,1-4.681-1.454,8.068,8.068,0,0,1-3.55-6.894q-.017-6.492,0-12.985A7.908,7.908,0,0,1,.161,6.675,8.055,8.055,0,0,1,6.264.242C6.7.122,7.153.078,7.6,0M27.053,14.843q0-3.217,0-6.433a5.91,5.91,0,0,0-.3-1.994,5.555,5.555,0,0,0-5.437-3.784C17,2.626,12.682,2.618,8.365,2.643a6.275,6.275,0,0,0-1.932.3,5.491,5.491,0,0,0-3.8,5.417q-.009,6.477,0,12.953a5.773,5.773,0,0,0,.3,1.964,5.537,5.537,0,0,0,5.388,3.769q6.52.017,13.04,0a5.488,5.488,0,0,0,4.664-2.363,5.566,5.566,0,0,0,1.023-3.376q0-3.231,0-6.462" transform="translate(0 0.001)"/>
  <path id="Path_25" data-name="Path 25" d="M243.141,235.358a7.649,7.649,0,1,1-7.659-7.645,7.682,7.682,0,0,1,7.659,7.645m-2.639,0a5.01,5.01,0,1,0-5.007,5.013,5.016,5.016,0,0,0,5.007-5.013" transform="translate(-220.648 -220.522)"/>
  <path id="Path_26" data-name="Path 26" d="M663.186,157.361a1.922,1.922,0,1,1-1.974,1.892,1.933,1.933,0,0,1,1.974-1.892" transform="translate(-640.33 -152.391)"/>
</svg>
