<svg xmlns="http://www.w3.org/2000/svg" width="22.211" height="36.127" viewBox="0 0 22.211 36.127">
  <g id="Group_300" data-name="Group 300" transform="translate(-1122.007 -1273.106)">
    <path id="Path_671" data-name="Path 671" d="M73.85,136.041a1.462,1.462,0,0,0,1.636,2.424A7.474,7.474,0,0,0,77.507,128.1a7.349,7.349,0,0,0-1.858-1.922,1.459,1.459,0,1,0-1.7,2.372,4.564,4.564,0,0,1-.1,7.5" transform="translate(1048.803 1158.862)"/>
    <path id="Path_672" data-name="Path 672" d="M93.735,106.224a1.459,1.459,0,1,0-1.7,2.372,18.755,18.755,0,0,1-.421,30.8,1.465,1.465,0,0,0,.824,2.676,1.444,1.444,0,0,0,.812-.251,21.677,21.677,0,0,0,.485-35.6" transform="translate(1041.416 1167.157)"/>
    <path id="Path_673" data-name="Path 673" d="M85.075,117.721a1.413,1.413,0,0,0-.783-.263,1.455,1.455,0,0,0-.917,2.641,9.259,9.259,0,0,1,.917.742,10.56,10.56,0,0,1,0,15.726,9.693,9.693,0,0,1-1.151.905,1.46,1.46,0,0,0,.818,2.67,1.093,1.093,0,0,0,.333-.047,1.216,1.216,0,0,0,.485-.2,13.5,13.5,0,0,0,.3-22.17" transform="translate(1044.94 1162.373)"/>
  </g>
</svg>
