<svg id="Group_140" data-name="Group 140" xmlns="http://www.w3.org/2000/svg" xmlns:xlink="http://www.w3.org/1999/xlink" width="47.051" height="47.051" viewBox="0 0 47.051 47.051">
  <defs>
    <clipPath id="clip-path">
      <rect id="Rectangle_306" data-name="Rectangle 306" width="47.051" height="47.051" fill="none"/>
    </clipPath>
  </defs>
  <g id="Group_139" data-name="Group 139" clip-path="url(#clip-path)">
    <path id="Path_603" data-name="Path 603" d="M40.816,0H6.235A6.235,6.235,0,0,0,0,6.235V40.816a6.235,6.235,0,0,0,6.235,6.235H40.816a6.235,6.235,0,0,0,6.235-6.235V6.235A6.235,6.235,0,0,0,40.816,0m5,40.816a5.006,5.006,0,0,1-5,5H6.235a5.006,5.006,0,0,1-5-5V6.235a5.006,5.006,0,0,1,5-5H40.816a5.006,5.006,0,0,1,5,5Z"/>
    <path id="Path_604" data-name="Path 604" d="M37.412,19.782A8.392,8.392,0,1,0,45.8,28.174a8.392,8.392,0,0,0-8.392-8.392m0,15.549a7.157,7.157,0,1,1,7.157-7.157,7.165,7.165,0,0,1-7.157,7.157" transform="translate(-21.854 -14.897)"/>
    <path id="Path_605" data-name="Path 605" d="M37.412,101.154a8.392,8.392,0,1,0,8.392,8.392,8.392,8.392,0,0,0-8.392-8.392m0,15.549a7.157,7.157,0,1,1,7.157-7.157,7.165,7.165,0,0,1-7.157,7.157" transform="translate(-21.854 -76.175)"/>
    <path id="Path_606" data-name="Path 606" d="M118.652,78.08a3.394,3.394,0,1,0,3.394,3.394,3.394,3.394,0,0,0-3.394-3.394" transform="translate(-86.796 -58.799)"/>
    <path id="Path_607" data-name="Path 607" d="M123.827,47.084a1.545,1.545,0,1,0-1.087-1.477,1.546,1.546,0,0,0,1.087,1.477" transform="translate(-92.43 -33.18)"/>
  </g>
</svg>
