<svg xmlns="http://www.w3.org/2000/svg" width="85.369" height="35.066" viewBox="0 0 85.369 35.066">
  <g id="Group_211" data-name="Group 211" transform="translate(0)" opacity="0.3">
    <path id="Path_747" data-name="Path 747" d="M.587,111.6H5.152a.546.546,0,0,1,.587.588v26.662a.546.546,0,0,1-.587.587H.587A.546.546,0,0,1,0,138.849V112.188A.546.546,0,0,1,.587,111.6Z" transform="translate(0 -111.6)"/>
    <path id="Path_748" data-name="Path 748" d="M21.3,140.661a9.738,9.738,0,1,1,9.716,9.716A9.682,9.682,0,0,1,21.3,140.661Zm13.963,0a4.251,4.251,0,1,0-4.248,4.429A4.27,4.27,0,0,0,35.263,140.661Z" transform="translate(-11.675 -122.178)"/>
    <path id="Path_749" data-name="Path 749" d="M87.674,132.525l-9.851,24.809a.677.677,0,0,1-.678.452H72.672c-.407,0-.678-.226-.452-.633l2.711-6.552-7.185-18.076c-.136-.407.045-.633.452-.633h4.609a.642.642,0,0,1,.678.452l4.2,11.524,4.2-11.524a.677.677,0,0,1,.678-.452h4.7C87.674,131.848,87.855,132.074,87.674,132.525Z" transform="translate(-35.618 -122.719)"/>
    <path id="Path_750" data-name="Path 750" d="M134.857,131.949v17.533a.546.546,0,0,1-.587.588h-3.886c-.361,0-.542-.226-.587-.588l-.226-1.582a6.543,6.543,0,0,1-5.332,2.44c-5.2,0-9.038-4.248-9.038-9.58,0-5.468,3.8-9.761,9.038-9.761a6.674,6.674,0,0,1,5.377,2.666l.181-1.717c.045-.361.226-.587.587-.587h3.886A.546.546,0,0,1,134.857,131.949Zm-5.694,8.767a4.228,4.228,0,1,0-4.2,4.383A4.106,4.106,0,0,0,129.163,140.716Z" transform="translate(-60.108 -122.233)"/>
    <path id="Path_751" data-name="Path 751" d="M170.087,111.6h4.564a.546.546,0,0,1,.587.588v26.662a.546.546,0,0,1-.587.587h-4.564a.546.546,0,0,1-.587-.587V112.188A.546.546,0,0,1,170.087,111.6Z" transform="translate(-89.87 -111.6)"/>
  </g>
</svg>
