<svg xmlns="http://www.w3.org/2000/svg" xmlns:xlink="http://www.w3.org/1999/xlink" width="152" height="34" viewBox="0 0 152 34">
  <defs>
    <clipPath id="clip-path">
      <rect id="Rectangle_340" data-name="Rectangle 340" width="152" height="34" transform="translate(-0.41 -0.39)" fill="none"/>
    </clipPath>
  </defs>
  <g id="Group_210" data-name="Group 210" transform="translate(0.41 0.39)" opacity="0.3">
    <g id="Group_209" data-name="Group 209" clip-path="url(#clip-path)">
      <path id="Path_718" data-name="Path 718" d="M793.294,33.221a1.47,1.47,0,0,1-.951-1.58q.026-9.732.009-19.463a11.792,11.792,0,0,1,2.963-8.023,11.784,11.784,0,0,1,8.054-4.1A1.614,1.614,0,0,0,803.61,0h1.557c.518.082,1.039.147,1.552.248a12.021,12.021,0,0,1-.436,23.667A11.744,11.744,0,0,1,795.191,19.8c-.093-.105-.182-.214-.273-.321-.007-.008-.016-.014-.079-.065-.008.156-.02.273-.02.391,0,3.946-.013,7.893.009,11.839a1.455,1.455,0,0,1-.952,1.578ZM804.4,2.476a9.565,9.565,0,1,0,9.54,9.632,9.607,9.607,0,0,0-9.54-9.632" transform="translate(-740.932)"/>
      <path id="Path_719" data-name="Path 719" d="M1642.846,0a.293.293,0,0,0,.07.058,1.217,1.217,0,0,1,.906,1.359,11.9,11.9,0,0,1-6.474,10.508l-.2.112c.079.051.142.1.21.135a11.95,11.95,0,0,1,6.373,9.158,12.4,12.4,0,0,1,.09,1.39,1.222,1.222,0,0,1-1.21,1.352,1.236,1.236,0,0,1-1.26-1.312,9.572,9.572,0,0,0-6.659-9.029,9.037,9.037,0,0,0-2.8-.442c-1.3.005-2.6,0-3.893,0h-.388V13.7q0,4.526,0,9.051a1.235,1.235,0,1,1-2.463.167c-.005-.1,0-.195,0-.292V1.574c0-.949.179-1.224,1.028-1.574h.454a1.47,1.47,0,0,1,1,1.607c-.029,2.927-.012,5.855-.012,8.783V10.8h.427c1.264,0,2.529.034,3.792-.013a11.38,11.38,0,0,0,2.335-.292,9.53,9.53,0,0,0,7.188-8.93c.029-.946.2-1.224,1.041-1.569h.454" transform="translate(-1519.696)"/>
      <path id="Path_720" data-name="Path 720" d="M1983.012,12.133a3.829,3.829,0,0,1-.342.716,1.274,1.274,0,0,1-1.1.443q-3.86,0-7.719,0h-12.375a8.7,8.7,0,0,0,1.044,3.243,9.452,9.452,0,0,0,8.4,5.071,1.234,1.234,0,1,1-.014,2.468A12.026,12.026,0,0,1,1959.14,14.3a17.087,17.087,0,0,1-.2-2.254,1.15,1.15,0,0,1,1.09-1.22,4.432,4.432,0,0,1,.485-.021h19.9a8.287,8.287,0,0,0-.755-2.666,9.457,9.457,0,0,0-8.231-5.637c-.151-.012-.3-.02-.453-.022a1.227,1.227,0,0,1-1.255-1.039A1.243,1.243,0,0,1,1970.6.063c.05-.017.1-.042.145-.063h.973c.54.085,1.083.155,1.619.258a12.04,12.04,0,0,1,9.48,9.888c.078.531.128,1.065.19,1.6Z" transform="translate(-1831.832)"/>
      <path id="Path_721" data-name="Path 721" d="M0,135.055c.024-.079.051-.158.071-.238a1.232,1.232,0,0,1,1.249-.93,1.171,1.171,0,0,1,1.152.992c.088.63.089,1.272.19,1.9a9.548,9.548,0,0,0,18.768.21,11.455,11.455,0,0,0,.182-1.8,1.257,1.257,0,0,1,1.662-1.233,1.229,1.229,0,0,1,.822,1.2A12.03,12.03,0,0,1,.218,137.2c-.092-.519-.11-1.052-.165-1.578A2.115,2.115,0,0,0,0,135.379v-.324" transform="translate(0 -125.192)"/>
      <path id="Path_722" data-name="Path 722" d="M1377.1,0c.412.062.825.119,1.236.187a12.007,12.007,0,0,1,9.861,9.908,15.505,15.505,0,0,1,.154,1.9,1.217,1.217,0,0,1-1.206,1.293,1.241,1.241,0,0,1-1.251-1.295,8.84,8.84,0,0,0-.658-3.413A9.449,9.449,0,0,0,1376.82,2.5c-.151-.013-.3-.02-.453-.022a1.22,1.22,0,0,1-1.262-1.064,1.242,1.242,0,0,1,.875-1.348c.05-.017.1-.043.144-.065h.973" transform="translate(-1285.871)"/>
      <path id="Path_723" data-name="Path 723" d="M1208.384,168.246a1.808,1.808,0,0,1,.276-1.149,1.244,1.244,0,0,1,1.362-.431,1.224,1.224,0,0,1,.864,1.234,9.553,9.553,0,0,0,9.465,9.5,1.236,1.236,0,1,1-.017,2.466,12.028,12.028,0,0,1-11.719-9.86c-.1-.583-.155-1.176-.231-1.764" transform="translate(-1129.979 -155.797)"/>
      <path id="Path_724" data-name="Path 724" d="M376.158,145.467a11.893,11.893,0,0,1,3.68-8.055,11.735,11.735,0,0,1,8.339-3.38,1.232,1.232,0,1,1-.009,2.463,9.547,9.547,0,0,0-9.252,7.291,12.9,12.9,0,0,0-.282,2.21,1.249,1.249,0,0,1-1.244,1.294,1.229,1.229,0,0,1-1.231-1.305c0-.173,0-.345,0-.518" transform="translate(-351.751 -125.336)"/>
    </g>
  </g>
</svg>
