<svg id="Group_198" data-name="Group 198" xmlns="http://www.w3.org/2000/svg" width="38.318" height="61.403" viewBox="0 0 38.318 61.403">
  <path id="Path_659" data-name="Path 659" d="M1023.415,154.992a1.063,1.063,0,0,0-1.063,1.063v30.617a6.671,6.671,0,0,1-6.664,6.663H998.071a6.671,6.671,0,0,1-6.663-6.663v-6.591a6.425,6.425,0,0,0,1.114.1,6.234,6.234,0,0,0,.981-.077v6.67a4.315,4.315,0,0,0,4.486,4.109h17.758a4.315,4.315,0,0,0,4.487-4.109V156.055a1.063,1.063,0,0,0-2.126,0v30.718a2.2,2.2,0,0,1-2.36,1.983H997.989a2.2,2.2,0,0,1-2.36-1.983v-7.405h0a6.364,6.364,0,0,0,3.253-5.55V156.8a2.592,2.592,0,0,0-2.59-2.59H996.2V144.185a1.19,1.19,0,0,0,0-.123l-.017-.132-.54-4.946a1.545,1.545,0,0,0-.119-.43l-1.514-3.547a1.665,1.665,0,0,0-3-.017l-1.59,3.462a1.5,1.5,0,0,0-.162.57l-.412,4.937-.009.123v0a.749.749,0,0,0,0,.1v10.023h-.085a2.592,2.592,0,0,0-2.59,2.59v17.019a6.365,6.365,0,0,0,3.121,5.473v7.382a8.8,8.8,0,0,0,8.79,8.79h17.617a8.8,8.8,0,0,0,8.79-8.79V156.055a1.063,1.063,0,0,0-1.063-1.063m-32.454-10.505h3.117v2.2h-3.117Zm0,4.329h3.117v5.392h-3.117Zm.408-9.513,1.118-2.441,1.05,2.462.315,2.858h-2.722Zm-3.083,17.5a.465.465,0,0,1,.464-.464h7.544a.465.465,0,0,1,.464.464v17.019a4.236,4.236,0,0,1-8.471,0Z" transform="translate(-986.16 -134.059)"/>
</svg>
