<svg xmlns="http://www.w3.org/2000/svg" width="35.112" height="50.339" viewBox="0 0 35.112 50.339">
  <g id="Group_173" data-name="Group 173" transform="translate(0 0)">
    <path id="Path_666" data-name="Path 666" d="M73.553,131.38a.79.79,0,0,0,.884,1.31,4.039,4.039,0,0,0,1.092-5.6,3.972,3.972,0,0,0-1-1.039.788.788,0,1,0-.919,1.282,2.466,2.466,0,0,1-.054,4.05" transform="translate(-50.093 -110.256)"/>
    <path id="Path_667" data-name="Path 667" d="M25.436,122.518a2.594,2.594,0,0,1-2.592,2.592H4.174a2.6,2.6,0,0,1-2.6-2.592v-42a2.6,2.6,0,0,1,2.6-2.592h4.8a1.629,1.629,0,0,0,1.449.874h6.169a1.636,1.636,0,0,0,1.449-.874h4.8a2.6,2.6,0,0,1,2.592,2.592v3.192h1.579V80.52a4.171,4.171,0,0,0-4.17-4.17H4.174A4.173,4.173,0,0,0,0,80.52v42a4.171,4.171,0,0,0,4.174,4.17H22.844a4.169,4.169,0,0,0,4.17-4.17v-14.7H25.436Z" transform="translate(0 -76.35)"/>
    <path id="Path_668" data-name="Path 668" d="M35.77,215.846a2.216,2.216,0,1,0,2.216-2.216,2.217,2.217,0,0,0-2.216,2.216m2.854,0a.638.638,0,1,1-.638-.638.64.64,0,0,1,.638.638" transform="translate(-24.477 -170.291)"/>
    <path id="Path_669" data-name="Path 669" d="M92.465,106.1a.788.788,0,1,0-.919,1.282,10.136,10.136,0,0,1-.227,16.647.792.792,0,0,0,.445,1.446.78.78,0,0,0,.439-.136,11.715,11.715,0,0,0,.262-19.239" transform="translate(-62.253 -96.604)"/>
    <path id="Path_670" data-name="Path 670" d="M83.889,117.6a.764.764,0,0,0-.423-.142.786.786,0,0,0-.5,1.427,5,5,0,0,1,.5.4,5.707,5.707,0,0,1,0,8.5,5.238,5.238,0,0,1-.622.489.789.789,0,0,0,.442,1.443.59.59,0,0,0,.18-.025.657.657,0,0,0,.262-.11,7.295,7.295,0,0,0,.161-11.981" transform="translate(-56.452 -104.478)"/>
  </g>
</svg>
