<svg id="Group_41" data-name="Group 41" xmlns="http://www.w3.org/2000/svg" xmlns:xlink="http://www.w3.org/1999/xlink" width="209.455" height="206.538" viewBox="0 0 209.455 206.538">
  <defs>
    <clipPath id="clip-path">
      <rect id="Rectangle_54" data-name="Rectangle 54" width="209.455" height="206.538" fill="#fff"/>
    </clipPath>
  </defs>
  <g id="Group_37" data-name="Group 37" clip-path="url(#clip-path)">
    <path id="Path_403" data-name="Path 403" d="M115.695,76.167A39.417,39.417,0,1,1,76.277,36.75a39.418,39.418,0,0,1,39.417,39.417" transform="translate(28.387 28.302)" fill="#fff"/>
    <path id="Path_404" data-name="Path 404" d="M33.443,19.351l-5.156,3.894,1.036,3.346-1.629,1.23-4.6-14.982,1.781-1.344,13.131,8.541-1.629,1.228Zm-8.031-5.279,2.368,7.583,4.275-3.225Z" transform="translate(17.786 8.853)" fill="#fff"/>
    <path id="Path_405" data-name="Path 405" d="M38.9,4.436A6.96,6.96,0,0,1,46.937,6l-2.144.871a4.651,4.651,0,0,0-5.256-.864c-2.869,1.167-4.163,4.123-2.8,7.484,1.359,3.344,4.351,4.556,7.22,3.388a4.664,4.664,0,0,0,3.169-4.266l2.144-.871a6.955,6.955,0,0,1-4.678,6.691,7.259,7.259,0,0,1-9.683-4.2,7.294,7.294,0,0,1,3.99-9.8" transform="translate(26.408 2.932)" fill="#fff"/>
    <path id="Path_406" data-name="Path 406" d="M58.992,8.265l-7.479.929.828,6.657-1.919.239L48.6,1.407l1.917-.239.8,6.447L58.8,6.684,58,.239,59.912,0l1.825,14.683-1.917.239Z" transform="translate(37.427 0)" fill="#fff"/>
    <path id="Path_407" data-name="Path 407" d="M71.728,2.463l-6-.635-.522,4.921,5.365.568L70.4,8.9l-5.365-.57L64.5,13.4l6,.637-.168,1.584-7.921-.841L63.975.038,71.9.877Z" transform="translate(48.064 0.029)" fill="#fff"/>
    <path id="Path_408" data-name="Path 408" d="M75.529,2.076,85.04,5.25l-.5,1.492L80.714,5.465l-4.19,12.552L74.69,17.4,78.882,4.852l-3.85-1.285Z" transform="translate(57.521 1.599)" fill="#fff"/>
    <path id="Path_409" data-name="Path 409" d="M96.864,12.606,91.687,9.515l-2.535,4.248,4.631,2.765L92.965,17.9l-4.631-2.763-2.613,4.374L90.9,22.6l-.816,1.367-6.836-4.082,7.6-12.725L97.68,11.24Z" transform="translate(64.111 5.512)" fill="#fff"/>
    <path id="Path_410" data-name="Path 410" d="M105.752,17.614c2.526,2.4,2.4,4.944.726,6.7a4.177,4.177,0,0,1-5.484.65l-1.581,7.056-1.678-1.595L99.353,23.6l-1.694-1.611-4.174,4.39-1.4-1.333,10.2-10.732Zm-1.1,1.154-2.064-1.961-3.866,4.062,2.064,1.963c1.586,1.506,3.1,1.3,4.239.1s1.227-2.645-.374-4.167" transform="translate(70.918 11.027)" fill="#fff"/>
    <path id="Path_411" data-name="Path 411" d="M108.575,34.338a2.613,2.613,0,1,1-1.227,3.454,2.58,2.58,0,0,1,1.227-3.454" transform="translate(82.475 26.243)" fill="#fff"/>
    <path id="Path_412" data-name="Path 412" d="M124.848,62.556l.138,2.034-15.154-4.578-.15-2.225,14.4-6.574.14,2.055-12.43,5.5Z" transform="translate(84.469 39.441)" fill="#fff"/>
    <path id="Path_413" data-name="Path 413" d="M121.862,75.066l.966-5.951-4.884-.795-.864,5.325-1.572-.255.864-5.325-5.029-.816-.968,5.951-1.572-.255,1.276-7.859,14.63,2.376-1.276,7.861Z" transform="translate(83.794 50.125)" fill="#fff"/>
    <path id="Path_414" data-name="Path 414" d="M118.366,91.962,104.679,86.25l.743-1.783L119.3,81.83l-10.881-4.54.743-1.786,13.687,5.714L122.106,83l-13.86,2.643,10.865,4.533Z" transform="translate(80.617 58.148)" fill="#fff"/>
    <path id="Path_415" data-name="Path 415" d="M101.842,101.5c-3.646-2.783-4.041-6.852-1.09-10.718l2.8-3.662,11.768,8.98-2.8,3.662c-2.949,3.866-7.029,4.519-10.676,1.738m.175-9.752c-2.344,3.071-1.846,5.99,1.023,8.18s5.882,1.954,8.229-1.12l1.623-2.126-9.253-7.059Z" transform="translate(76.083 67.092)" fill="#fff"/>
    <path id="Path_416" data-name="Path 416" d="M101.868,111.469c-2.721,2.176-5.222,1.7-6.732-.189a4.175,4.175,0,0,1,.1-5.519l-6.774-2.521,1.807-1.448,6.532,2.526,1.825-1.459-3.779-4.726,1.508-1.207,9.245,11.561Zm-.995-1.244,2.222-1.777-3.5-4.379-2.223,1.777c-1.706,1.368-1.71,2.892-.676,4.186,1.046,1.31,2.453,1.572,4.179.193" transform="translate(68.127 74.646)" fill="#fff"/>
    <path id="Path_417" data-name="Path 417" d="M84.966,119.084l5.424-2.639-2.165-4.45-4.85,2.361-.7-1.432,4.85-2.36-2.23-4.583-5.422,2.638-.7-1.434,7.16-3.482,6.486,13.329-7.158,3.484Z" transform="translate(60.977 79.865)" fill="#fff"/>
    <path id="Path_418" data-name="Path 418" d="M68.113,114.357a2.613,2.613,0,1,1-2.829-2.331,2.581,2.581,0,0,1,2.829,2.331" transform="translate(48.44 86.265)" fill="#fff"/>
    <path id="Path_419" data-name="Path 419" d="M45.062,122.786c-3.358-.929-4.438-3.236-3.792-5.569a4.175,4.175,0,0,1,4.533-3.154l-1.928-6.971,2.232.62,1.781,6.776,2.253.623,1.616-5.834,1.864.515-3.954,14.271Zm.425-1.535,2.744.761,1.5-5.406-2.742-.761c-2.11-.584-3.349.308-3.792,1.9-.448,1.618.165,2.912,2.292,3.5" transform="translate(31.647 82.475)" fill="#fff"/>
    <path id="Path_420" data-name="Path 420" d="M29.81,114.215l5.309,2.861,2.347-4.355-4.747-2.56.754-1.4,4.749,2.56,2.416-4.486-5.307-2.861.756-1.4,7.008,3.777-7.033,13.046-7.008-3.777Z" transform="translate(22.376 78.993)" fill="#fff"/>
    <path id="Path_421" data-name="Path 421" d="M26.922,101.122l2.151,1.864,4.048-4.67,1.459,1.266-9.7,11.184-3.611-3.13c-2.63-2.282-2.613-4.8-1.028-6.626,1.475-1.7,3.9-2.294,6.677.112m-1.043,1.2c-1.667-1.446-3.057-1.273-4.142-.021-1.126,1.3-1.087,2.682.581,4.128l2.151,1.864,3.562-4.107Z" transform="translate(14.752 75.717)" fill="#fff"/>
    <path id="Path_422" data-name="Path 422" d="M18.781,90.039l3.753,5.256,3.37-.947,1.184,1.66L12,100.205l-1.3-1.814L19.585,85.5l1.184,1.66Zm-5.487,7.886,7.638-2.168L17.823,91.4Z" transform="translate(8.242 65.844)" fill="#fff"/>
    <path id="Path_423" data-name="Path 423" d="M4.455,85.412c-1.287-3.238-.106-5.495,2.147-6.388a4.175,4.175,0,0,1,5.254,1.7l4.388-5.751.857,2.152-4.323,5.518.866,2.172,5.627-2.241.713,1.8L6.224,89.855Zm1.482-.589L6.99,87.467,12.2,85.392l-1.055-2.646c-.809-2.032-2.269-2.48-3.809-1.869-1.559.621-2.22,1.892-1.4,3.946" transform="translate(3.022 57.742)" fill="#fff"/>
    <path id="Path_424" data-name="Path 424" d="M1.965,66.616l.928,5.96,4.891-.759-.832-5.332,1.575-.246.83,5.332,5.036-.786-.928-5.96,1.574-.244,1.225,7.87L1.616,74.733.389,66.863Z" transform="translate(0.3 49.736)" fill="#fff"/>
    <path id="Path_425" data-name="Path 425" d="M.317,57.179c.228-3.475,2.269-5,4.686-4.841a4.178,4.178,0,0,1,4.009,3.8l6.434-3.3-.152,2.312L9.019,58.27,8.865,60.6l6.043.4-.129,1.929L0,61.952Zm1.59.106-.188,2.841,5.6.372L7.5,57.657c.145-2.183-.979-3.216-2.632-3.326-1.675-.11-2.818.751-2.965,2.954" transform="translate(0 40.299)" fill="#fff"/>
    <path id="Path_426" data-name="Path 426" d="M9.524,39.52a2.612,2.612,0,1,1,3.441-1.259A2.58,2.58,0,0,1,9.524,39.52" transform="translate(6.162 26.597)" fill="#fff"/>
  </g>
</svg>
