<svg id="Group_28" data-name="Group 28" xmlns="http://www.w3.org/2000/svg" xmlns:xlink="http://www.w3.org/1999/xlink" width="30.079" height="30.053" viewBox="0 0 30.079 30.053">
  <defs>
    <clipPath id="clip-path">
      <rect id="Rectangle_29" data-name="Rectangle 29" width="30.079" height="30.053" fill="#fff" stroke="#000" stroke-width="0.7"/>
    </clipPath>
  </defs>
  <g id="Group_27" data-name="Group 27" clip-path="url(#clip-path)">
    <path id="Path_358" data-name="Path 358" d="M14.045,0c.5.074,1,.135,1.5.226a12.846,12.846,0,0,1,7.024,3.741,12.68,12.68,0,0,1,3.482,6.591,12.924,12.924,0,0,1-2.267,10.316c-.023.032-.045.064-.064.1a.679.679,0,0,0-.031.093c.4.391.81.791,1.217,1.2q2.294,2.291,4.585,4.586a1.8,1.8,0,0,1,.414,2.1,1.875,1.875,0,0,1-1.842,1.1,1.821,1.821,0,0,1-1.232-.6c-1.323-1.332-2.655-2.657-3.98-3.987-.593-.6-1.18-1.2-1.777-1.8-.328.218-.624.423-.929.614a12.878,12.878,0,0,1-7.615,2.009,13.027,13.027,0,0,1-12.015-9.6A12.733,12.733,0,0,1,4.057,3.687,12.7,12.7,0,0,1,11.764.068L12.343,0ZM3.775,13.14a9.39,9.39,0,1,0,9.448-9.381A9.388,9.388,0,0,0,3.775,13.14" transform="translate(0)" fill="#fff" stroke="#000" stroke-width="0.7"/>
  </g>
</svg>
