<svg xmlns="http://www.w3.org/2000/svg" width="27.058" height="28.02" viewBox="0 0 27.058 28.02">
  <g id="Group_180" data-name="Group 180" transform="translate(0 0)">
    <path id="Path_657" data-name="Path 657" d="M814.587,97.529h-.558V96.117a1.456,1.456,0,0,0-1.339-1.451V73.992a2.844,2.844,0,0,0-2.842-2.842H797.832a2.846,2.846,0,0,0-2.842,2.842V94.667a1.456,1.456,0,0,0-1.339,1.451v1.411h-4.48a.821.821,0,1,0,0,1.641h25.417a.821.821,0,0,0,0-1.641M796.631,73.992a1.2,1.2,0,0,1,1.2-1.2h12.016a1.2,1.2,0,0,1,1.2,1.2V94.66H796.631Zm-.42,23.536h-.919V96.3h17.1v1.228H796.211Z" transform="translate(-788.35 -71.15)"/>
    <path id="Path_658" data-name="Path 658" d="M826.55,80.89h-6.735a2.675,2.675,0,0,0-2.675,2.672V93.776a2.677,2.677,0,0,0,2.675,2.675h6.735a2.68,2.68,0,0,0,2.675-2.675V83.562a2.677,2.677,0,0,0-2.675-2.672m1.034,12.886a1.036,1.036,0,0,1-1.034,1.034h-6.735a1.034,1.034,0,0,1-1.034-1.034V83.562a1.033,1.033,0,0,1,1.034-1.031h6.735a1.035,1.035,0,0,1,1.034,1.031Z" transform="translate(-807.691 -77.693)"/>
  </g>
</svg>
