<svg xmlns="http://www.w3.org/2000/svg" width="51.142" height="51.12" viewBox="0 0 51.142 51.12">
  <g id="Group_172" data-name="Group 172" transform="translate(0)">
    <path id="Path_660" data-name="Path 660" d="M295.036,76.35H276.075a4.235,4.235,0,0,0-4.235,4.235v42.65a4.233,4.233,0,0,0,4.235,4.235h18.961a4.236,4.236,0,0,0,4.238-4.235V80.585a4.238,4.238,0,0,0-4.238-4.235m2.635,46.885a2.637,2.637,0,0,1-2.635,2.632H276.075a2.634,2.634,0,0,1-2.632-2.632V80.585a2.636,2.636,0,0,1,2.632-2.632h4.876a1.662,1.662,0,0,0,1.472.888h6.265a1.654,1.654,0,0,0,1.472-.888h4.876a2.639,2.639,0,0,1,2.635,2.632Z" transform="translate(-259.608 -76.35)"/>
    <path id="Path_661" data-name="Path 661" d="M309.851,213.63a2.251,2.251,0,1,0,2.251,2.251,2.251,2.251,0,0,0-2.251-2.251m0,2.9a.648.648,0,1,1,.648-.648.65.65,0,0,1-.648.648" transform="translate(-283.903 -169.617)"/>
    <path id="Path_662" data-name="Path 662" d="M365.635,103.122a3.73,3.73,0,0,0,1.543-2.936.8.8,0,1,0-1.6,0c0,.781-.369,1.157-1.021,1.753a3.565,3.565,0,0,0,0,5.873c.653.6,1.022.972,1.022,1.754s-.369,1.157-1.021,1.753a3.565,3.565,0,0,0,0,5.873c.653.6,1.022.972,1.022,1.754s-.369,1.157-1.021,1.753a3.566,3.566,0,0,0,0,5.874c.653.6,1.022.973,1.022,1.755s-.369,1.158-1.022,1.755a3.733,3.733,0,0,0-1.543,2.937.8.8,0,1,0,1.6,0c0-.782.369-1.158,1.022-1.755a3.568,3.568,0,0,0,0-5.875c-.653-.6-1.022-.973-1.022-1.755s.369-1.156,1.022-1.753a3.566,3.566,0,0,0,0-5.873c-.653-.6-1.022-.972-1.022-1.754s.369-1.156,1.022-1.753a3.566,3.566,0,0,0,0-5.873c-.652-.6-1.022-.972-1.022-1.753s.369-1.157,1.022-1.753" transform="translate(-321.548 -91.999)"/>
    <path id="Path_663" data-name="Path 663" d="M382.76,117.636a2.765,2.765,0,0,0,0-5.027c-.677-.492-.953-.74-.953-1.217s.276-.725.953-1.217a3.063,3.063,0,0,0,1.612-2.514.8.8,0,1,0-1.6,0c0,.477-.275.725-.952,1.218a2.765,2.765,0,0,0,0,5.027c.677.492.952.74.952,1.217s-.275.725-.952,1.217a2.766,2.766,0,0,0,0,5.028c.677.492.952.741.952,1.218s-.275.725-.952,1.217a2.767,2.767,0,0,0,0,5.029c.677.493.953.741.953,1.219s-.276.726-.952,1.219a3.064,3.064,0,0,0-1.613,2.515.8.8,0,1,0,1.6,0c0-.478.276-.726.953-1.219a2.768,2.768,0,0,0,0-5.03c-.676-.492-.953-.741-.953-1.219s.276-.725.953-1.217a2.766,2.766,0,0,0,0-5.028c-.677-.492-.953-.74-.953-1.218s.276-.725.953-1.217" transform="translate(-333.23 -97.078)"/>
    <path id="Path_664" data-name="Path 664" d="M253.505,103.123a3.733,3.733,0,0,0,1.543-2.938.8.8,0,1,0-1.6,0c0,.782-.369,1.158-1.022,1.755a3.568,3.568,0,0,0,0,5.875c.653.6,1.022.973,1.022,1.755s-.369,1.157-1.022,1.753a3.566,3.566,0,0,0,0,5.873c.653.6,1.022.972,1.022,1.754s-.369,1.156-1.022,1.753a3.565,3.565,0,0,0,0,5.873c.652.6,1.022.972,1.022,1.753s-.369,1.157-1.022,1.753a3.73,3.73,0,0,0-1.543,2.936.8.8,0,0,0,1.6,0c0-.781.369-1.157,1.022-1.753a3.566,3.566,0,0,0,0-5.873c-.653-.6-1.022-.972-1.022-1.753s.369-1.157,1.022-1.753a3.566,3.566,0,0,0,0-5.873c-.653-.6-1.022-.972-1.022-1.754s.369-1.156,1.022-1.753a3.567,3.567,0,0,0,0-5.874c-.653-.6-1.022-.973-1.022-1.755s.369-1.158,1.022-1.755" transform="translate(-245.368 -91.999)"/>
    <path id="Path_665" data-name="Path 665" d="M236.243,116.156a3.063,3.063,0,0,0,1.612-2.515.8.8,0,1,0-1.6,0c0,.478-.276.726-.952,1.219a2.767,2.767,0,0,0,0,5.03c.676.493.952.741.952,1.219s-.275.725-.952,1.217a2.766,2.766,0,0,0,0,5.028c.677.492.952.741.952,1.218s-.275.725-.952,1.217a2.765,2.765,0,0,0,0,5.027c.677.492.952.74.952,1.217s-.275.725-.952,1.217a3.063,3.063,0,0,0-1.613,2.514.8.8,0,1,0,1.6,0c0-.477.276-.725.953-1.218a2.765,2.765,0,0,0,0-5.027c-.677-.492-.953-.74-.953-1.217s.276-.725.953-1.217a2.766,2.766,0,0,0,0-5.028c-.677-.492-.953-.74-.953-1.218s.276-.725.953-1.217a2.767,2.767,0,0,0,0-5.028c-.677-.493-.953-.741-.953-1.219s.276-.726.953-1.219" transform="translate(-233.687 -101.141)"/>
  </g>
</svg>
