<?xml version="1.0" encoding="utf-8"?>
<svg xmlns="http://www.w3.org/2000/svg" xmlns:xlink="http://www.w3.org/1999/xlink" width="50.133" height="25.149" viewBox="0 0 50.133 25.149">
  <defs>
    <clipPath id="clip-path">
      <rect id="Rectangle_305" data-name="Rectangle 305" width="50.133" height="25.149" fill="none"/>
    </clipPath>
  </defs>
  <g id="Group_138" data-name="Group 138" transform="translate(0)">
    <g id="Group_137" data-name="Group 137" transform="translate(0 0)" clip-path="url(#clip-path)">
      <path id="Path_600" data-name="Path 600" d="M211.068,27.825h-1.1v12.51h1.1a1.348,1.348,0,0,0,1.348-1.348V29.173a1.348,1.348,0,0,0-1.348-1.348" transform="translate(-162.283 -21.505)"/>
      <path id="Path_601" data-name="Path 601" d="M42.315,0H4.549A4.549,4.549,0,0,0,0,4.549V20.6a4.549,4.549,0,0,0,4.549,4.549H42.315A4.549,4.549,0,0,0,46.865,20.6V4.549A4.549,4.549,0,0,0,42.315,0m3.414,20.6a3.418,3.418,0,0,1-3.414,3.414H4.549A3.418,3.418,0,0,1,1.136,20.6V4.549A3.418,3.418,0,0,1,4.549,1.136H42.315a3.418,3.418,0,0,1,3.414,3.414Z" transform="translate(0 0)"/>
      <path id="Path_602" data-name="Path 602" d="M17.941,10.773a2.093,2.093,0,0,0-.756-.918q-.083-.056-.172-.1a2.078,2.078,0,0,0-.574-.209,2.1,2.1,0,0,0-.42-.042H11.112a2.081,2.081,0,0,0-.62.094c-.065.02-.129.044-.191.07a2.086,2.086,0,0,0-1.274,1.922V28.248a2.083,2.083,0,0,0,.083.579c.011.038.023.074.036.111a2.092,2.092,0,0,0,1.966,1.4h4.907a2.1,2.1,0,0,0,.42-.042,2.078,2.078,0,0,0,.574-.209q.089-.048.172-.1a2.1,2.1,0,0,0,.563-.563q.056-.083.1-.172a2.069,2.069,0,0,0,.209-.574,2.1,2.1,0,0,0,.042-.42V11.584a2.1,2.1,0,0,0-.042-.42,2.068,2.068,0,0,0-.122-.392" transform="translate(-6.976 -7.342)"/>
    </g>
  </g>
</svg>
